<svg width="25" height="24" viewBox="0 0 25 24" fill="none" xmlns="http://www.w3.org/2000/svg">
<path fill-rule="evenodd" clip-rule="evenodd" d="M11.1673 0.0733466C10.9244 0.161823 7.14835 2.71098 6.1299 3.47394C3.69665 5.29687 2.10764 7.07575 1.09666 9.10865C-0.0935679 11.5019 -0.324697 14.1671 0.450941 16.5542C0.658761 17.1938 1.15614 18.2025 1.56537 18.8144C3.73603 22.06 7.71003 23.9899 12.2435 24C16.1504 24.0087 20.1222 22.1095 22.274 19.2037C24.067 16.7825 24.7206 13.7181 24.0316 10.9629C23.8604 10.2781 23.7143 9.87688 23.3974 9.22026C22.0657 6.46159 19.431 4.48597 15.8842 3.58664C15.1684 3.4051 14.3421 3.24853 13.7058 3.17384L13.4508 3.14389L13.2597 2.07085C13.058 0.93856 12.9982 0.759637 12.7183 0.449785C12.3667 0.0606148 11.6678 -0.109011 11.1673 0.0733466ZM9.63023 4.09849C8.93913 4.56749 8.13675 5.12701 7.84709 5.34189C4.78136 7.61623 3.19771 9.71215 2.66749 12.197C2.52671 12.8566 2.49498 14.1028 2.6026 14.7468C2.84009 16.1682 3.64655 17.6538 4.76364 18.7276C6.60952 20.502 9.24541 21.4706 12.2284 21.4706C13.6121 21.4706 14.7208 21.2632 16.0216 20.7613C19.0607 19.5886 20.9977 17.463 21.6394 14.5966C21.7322 14.182 21.7459 13.9989 21.7455 13.1816C21.7449 12.1312 21.6973 11.8176 21.4161 11.0075C20.9193 9.57646 19.9599 8.37849 18.5718 7.45599C17.0136 6.42037 15.1285 5.82077 12.8159 5.62518C12.1374 5.5678 11.8377 5.46228 11.5411 5.17643C11.2674 4.91255 11.1604 4.65134 11.0289 3.92548C10.9635 3.56443 10.9047 3.26383 10.8983 3.25741C10.8919 3.251 10.3213 3.6295 9.63023 4.09849ZM15.5636 8.57496C14.4702 8.8272 13.6372 9.62683 13.3649 10.6857C13.272 11.0467 13.2729 11.7251 13.3666 12.0871C13.6158 13.0487 14.3706 13.8369 15.3086 14.1152C15.4454 14.1559 15.6241 14.1891 15.7056 14.1891C16.0872 14.1891 16.1361 14.072 16.1361 13.1587C16.1361 12.3776 16.171 12.2355 16.3867 12.1372C16.5377 12.0684 16.6818 12.0698 16.802 12.1413C16.8535 12.1719 17.0985 12.4134 17.3465 12.6778C17.8391 13.203 17.9255 13.2691 18.1228 13.2716C18.3777 13.2747 18.7455 12.7194 18.9126 12.0792C19.0129 11.6945 19.0114 11.0485 18.9091 10.6628C18.7376 10.016 18.2643 9.35719 17.7037 8.98514C17.1256 8.60138 16.2099 8.42585 15.5636 8.57496ZM9.0544 9.70533C7.49493 9.96599 6.42551 11.4936 6.71888 13.0417C6.9305 14.1587 7.77831 15.0564 8.85963 15.3087C9.16587 15.3802 9.28264 15.3572 9.42704 15.1972C9.50942 15.1058 9.51987 15.0214 9.53076 14.3561C9.53745 13.9494 9.55343 13.5696 9.56635 13.5122C9.59575 13.3811 9.84121 13.2278 10.0224 13.2274C10.1387 13.227 10.2475 13.318 10.7334 13.8225C11.2724 14.3822 11.3175 14.418 11.4821 14.418C11.7028 14.418 11.856 14.2644 12.0784 13.8197C12.7886 12.4002 12.2086 10.6549 10.8009 9.97556C10.2242 9.69727 9.64182 9.60714 9.0544 9.70533Z" fill="white"/>
</svg>
