<svg width="44" height="40" viewBox="0 0 44 40" fill="none" xmlns="http://www.w3.org/2000/svg">
<path d="M13.3433 39.9999C20.4841 39.9999 26.273 34.2066 26.273 27.0603C26.273 19.9138 20.4841 14.1206 13.3433 14.1206C6.20242 14.1206 0.413574 19.9138 0.413574 27.0603C0.413574 34.2066 6.20242 39.9999 13.3433 39.9999Z" fill="#131313"/>
<path d="M35.7729 38.3666C40.0879 38.3666 43.5858 34.8659 43.5858 30.5476C43.5858 26.2293 40.0879 22.7288 35.7729 22.7288C31.458 22.7288 27.96 26.2293 27.96 30.5476C27.96 34.8659 31.458 38.3666 35.7729 38.3666Z" fill="#131313"/>
<path d="M15.8167 12.4339C18.487 12.4339 20.6516 10.2676 20.6516 7.59535C20.6516 4.92311 18.487 2.75684 15.8167 2.75684C13.1465 2.75684 10.9819 4.92311 10.9819 7.59535C10.9819 10.2676 13.1465 12.4339 15.8167 12.4339Z" fill="#131313"/>
<path d="M32.7379 21.0408C38.5437 21.0408 43.2503 16.3307 43.2503 10.5204C43.2503 4.71014 38.5437 0 32.7379 0C26.9321 0 22.2256 4.71014 22.2256 10.5204C22.2256 16.3307 26.9321 21.0408 32.7379 21.0408Z" fill="#131313"/>
</svg>
