<svg width="40" height="40" viewBox="0 0 40 40" fill="none" xmlns="http://www.w3.org/2000/svg">
<path d="M33.8467 0C37.2452 0.000152039 40 2.75572 40 6.1543V33.8457C40 37.2443 37.2452 39.9998 33.8467 40H6.1543C2.75562 40 0 37.2444 0 33.8457V6.1543C0 2.75562 2.75562 0 6.1543 0H33.8467ZM30.708 26.6758C29.7323 26.6758 28.8892 26.8163 28.1943 27.0898C27.4923 27.3708 26.9453 27.8365 26.5684 28.4795C26.2061 29.093 26.0216 29.9213 26.0068 30.9268V31.0225L26.1172 31.0303L26.0068 31.0371V31.1338C26.0216 32.1392 26.2061 32.9675 26.5684 33.5811C26.9453 34.224 27.4923 34.6898 28.1943 34.9707C28.8892 35.2442 29.7323 35.3847 30.708 35.3848C31.6321 35.3848 32.4532 35.2883 33.0742 35.1035C33.7174 34.9113 34.2275 34.6006 34.6045 34.1719C35.011 33.7062 35.248 33.1151 35.2998 32.4277H33.2666V32.4199C33.2149 32.7526 33.0816 33.0264 32.8672 33.2334C32.6676 33.4256 32.3938 33.5661 32.0537 33.6475C31.721 33.7214 31.2254 33.7656 30.708 33.7656C30.1685 33.7656 29.6956 33.699 29.2891 33.5586C28.8972 33.4255 28.5865 33.1886 28.3721 32.8633C28.1504 32.538 28.0391 32.0646 28.0391 31.4512V30.6016C28.0391 29.9954 28.1504 29.5221 28.3721 29.1895C28.5939 28.8642 28.8972 28.6272 29.2891 28.4941C29.6881 28.3538 30.1686 28.2871 30.708 28.2871C31.2254 28.2871 31.721 28.3314 32.0537 28.4053C32.3937 28.4866 32.6676 28.6198 32.8672 28.8193C33.0816 29.0263 33.2148 29.3001 33.2666 29.6328H35.2998C35.2407 28.9454 35.011 28.3618 34.6045 27.8887C34.2349 27.4599 33.7173 27.1493 33.0742 26.957C32.4532 26.7722 31.6321 26.6758 30.708 26.6758ZM4.7002 4.61523V12.9551H6.74023V6.98828L9.33594 12.0303H11.1914L13.7861 6.98828V12.9551H15.8193V4.61523H12.9209L10.2598 10.1309L7.60547 4.61523H4.7002ZM26 4.61523V6.27832H29.6367V12.9551H31.6699V6.27832H35.2998V4.61523H26Z" fill="#131313"/>
</svg>
