<svg width="40" height="40" viewBox="0 0 40 40" fill="none" xmlns="http://www.w3.org/2000/svg">
<path d="M35.8376 7.82422C36.784 9.04492 37.5726 10.3838 38.243 11.8014L20.0245 25.2294L12.3748 20.4252V14.676L19.9856 19.4408L35.8376 7.82422Z" fill="#131313"/>
<path d="M4.63043 20.0236C4.63043 19.7485 4.63043 19.5127 4.67001 19.2376L0.0395842 19.002C0.0395842 19.3163 0 19.67 0 19.9843C0 25.4858 2.25585 30.476 5.89684 34.0918L9.18164 30.8302C6.3717 28.0795 4.63043 24.2675 4.63043 20.0236Z" fill="#131313"/>
<path d="M19.9763 4.63043C20.2514 4.63043 20.4872 4.63043 20.7622 4.67001L20.998 0.039577C20.6837 0.039577 20.33 0 20.0156 0C14.5142 0 9.52393 2.25585 5.9082 5.89684L9.16971 9.18164C11.9204 6.3717 15.7717 4.63043 19.9763 4.63043Z" fill="#131313"/>
<path d="M19.9492 35.3696C19.6727 35.3696 19.4357 35.3696 19.1591 35.33L18.9221 39.9604C19.2381 39.9604 19.5937 40 19.9097 40C25.4402 40 30.4569 37.7442 34.0918 34.1032L30.813 30.8184C28.0477 33.6678 24.2156 35.3696 19.9492 35.3696Z" fill="#131313"/>
<path d="M28.6599 7.34531L32.5747 4.46246C29.1344 1.69816 24.7452 0 19.96 0V4.62043C23.2025 4.65992 26.2079 5.64722 28.6599 7.34531Z" fill="#131313"/>
<path d="M39.9998 20.0252C39.9998 18.8063 39.882 17.6266 39.6856 16.447L35.4051 19.6321V20.0253C35.4051 24.5472 33.4415 28.5972 30.3391 31.3893L33.4415 34.8103C37.4472 31.1928 39.9998 25.8848 39.9998 20.0252Z" fill="#131313"/>
<path d="M19.9602 35.4053C15.4427 35.4053 11.3968 33.4418 8.60747 30.3394L5.18994 33.4418C8.84317 37.4867 14.1067 40 19.9604 40L19.9602 35.4053Z" fill="#131313"/>
<path d="M9.66068 8.62568L6.55825 5.18945C2.51335 8.8626 0 14.1548 0 20.0398H4.59471C4.59471 15.5372 6.55825 11.4302 9.66068 8.62568Z" fill="#131313"/>
</svg>
