<svg width="97" height="97" viewBox="0 0 97 97" fill="none" xmlns="http://www.w3.org/2000/svg">
<rect x="0.0688477" y="0.0390625" width="96" height="96" rx="24" fill="white"/>
<path d="M73.383 61.2025H60.3138L57.7427 67.249H52.7344L64.5023 41.1514H69.2715L81.0694 67.249H76.0012L73.3845 61.2025H73.383ZM71.7828 57.4848L66.8484 46.0783L61.9596 57.4848H71.7828Z" fill="#FB97BC"/>
<path d="M56.5344 30.232C58.3281 30.9532 60.6757 32.1641 61.7488 33.8473H65.961C64.8785 31.0445 61.8794 28.4511 57.8907 26.878C53.2443 25.0484 47.0684 24.0391 40.5039 24.0391C33.9394 24.0391 27.666 25.0468 23.1187 26.878C17.7768 29.029 15.0688 31.8255 15.0688 35.1904V59.5733C15.0688 63.0516 17.7768 65.9064 23.1187 68.0573C27.666 69.8886 33.8403 70.8963 40.5039 70.8963C41.1899 70.8963 41.8933 70.8853 42.5966 70.8617L44.2629 67.144C42.9931 67.2354 41.7296 67.281 40.5039 67.281C34.8976 67.281 29.2065 66.3662 24.4782 64.7065C21.5358 63.6736 18.5273 62.2911 18.5273 59.8898V57.6239L18.7775 57.805C20.0977 58.7576 21.7356 59.652 23.2729 60.2598C27.8029 62.0517 33.9221 63.0374 40.5039 63.0374C42.4377 63.0374 44.3605 62.9508 46.2172 62.7792L47.959 58.8915C45.5044 59.2442 42.9978 59.4206 40.5039 59.4206C34.8976 59.4206 29.2065 58.5057 24.4782 56.8461C21.5358 55.8131 18.5273 54.4306 18.5273 52.0293V49.7635L18.7775 49.9445C20.0977 50.8972 21.7356 51.7916 23.2729 52.3994C27.8029 54.1913 33.9221 55.177 40.5039 55.177C43.8003 55.177 46.9787 54.9313 49.9494 54.4495L51.7951 50.3288C48.1997 51.135 44.3022 51.5617 40.5039 51.5617C34.8976 51.5617 29.2065 50.6468 24.4782 48.9856C21.5358 47.9527 18.5273 46.5702 18.5273 44.1689V41.903L18.7775 42.0841C20.0977 43.0367 21.7356 43.9311 23.2729 44.5389C27.8029 46.3308 33.9221 47.3165 40.5039 47.3165C45.3093 47.3165 49.9148 46.7875 53.8312 45.7876L55.7917 41.4102C51.74 42.8903 46.332 43.7028 40.5055 43.7028C34.2934 43.7028 28.6007 42.7879 24.4735 41.1267C22.3115 40.256 18.6862 38.3916 18.6862 35.6817C18.6862 32.9718 22.3131 31.109 24.4735 30.2367C24.6733 30.1564 24.8826 30.0745 25.1013 29.9942L25.2445 29.9407L25.3011 30.0839C25.4191 30.38 28.2026 37.3445 28.4402 37.9838C28.6982 38.6798 29.0743 38.7522 29.636 38.642C30.1474 38.5412 34.8032 37.6563 40.5039 37.6563C40.9854 37.6563 41.4857 37.6641 41.9971 37.6783L42.1403 37.6814C45.9025 37.7901 49.4632 38.2673 51.3718 38.6436C51.932 38.7538 52.308 38.6814 52.5677 37.9854C52.7455 37.5051 55.5871 30.3895 55.7067 30.0856L55.7634 29.9422L55.9081 29.9958C56.1268 30.0777 56.3377 30.1579 56.5359 30.2383V30.2351L56.5344 30.232ZM38.6913 34.0646L38.5386 34.0693C35.8716 34.1606 33.332 34.4409 31.1937 34.8802L31.0647 34.907L28.6998 28.9141L28.8776 28.8731C31.746 28.207 35.0849 27.796 38.5292 27.6858L38.6913 27.6811V34.0646ZM52.2294 29.103L49.9384 34.907L49.8094 34.8802C47.671 34.4393 45.1315 34.1606 42.466 34.0693L42.3134 34.0646V27.6811L42.4755 27.6858C45.9229 27.796 49.2587 28.2054 52.1271 28.8731L52.3316 28.9204L52.2294 29.103Z" fill="#FB97BC"/>
</svg>
 