<svg width="97" height="97" viewBox="0 0 97 97" fill="none" xmlns="http://www.w3.org/2000/svg">
<rect x="0.0688477" y="0.0390625" width="96" height="96" rx="24" fill="white"/>
<path d="M33.4029 81.0387C45.1853 81.0387 54.737 71.4797 54.737 59.6883C54.737 47.8967 45.1853 38.3379 33.4029 38.3379C21.6204 38.3379 12.0688 47.8967 12.0688 59.6883C12.0688 71.4797 21.6204 81.0387 33.4029 81.0387Z" fill="#FB97BC"/>
<path d="M70.4114 78.3439C77.5312 78.3439 83.3027 72.5678 83.3027 65.4426C83.3027 58.3174 77.5312 52.5415 70.4114 52.5415C63.2917 52.5415 57.52 58.3174 57.52 65.4426C57.52 72.5678 63.2917 78.3439 70.4114 78.3439Z" fill="#FB97BC"/>
<path d="M37.4837 35.555C41.8897 35.555 45.4613 31.9806 45.4613 27.5714C45.4613 23.1623 41.8897 19.5879 37.4837 19.5879C33.078 19.5879 29.5063 23.1623 29.5063 27.5714C29.5063 31.9806 33.078 35.555 37.4837 35.555Z" fill="#FB97BC"/>
<path d="M65.404 49.7565C74.9835 49.7565 82.7494 41.9846 82.7494 32.3978C82.7494 22.8108 74.9835 15.0391 65.404 15.0391C55.8243 15.0391 48.0586 22.8108 48.0586 32.3978C48.0586 41.9846 55.8243 49.7565 65.404 49.7565Z" fill="#FB97BC"/>
</svg>
