<svg width="97" height="97" viewBox="0 0 97 97" fill="none" xmlns="http://www.w3.org/2000/svg">
<rect x="0.0688477" y="0.0390625" width="96" height="96" rx="24" fill="white"/>
<path fill-rule="evenodd" clip-rule="evenodd" d="M48.6252 31.4971C37.4091 31.4971 28.3184 36.1298 28.3184 41.8443C28.3184 47.5567 37.4091 52.3749 48.6252 52.3749C59.8402 52.3749 68.9338 47.5567 68.9338 41.8443C68.9338 36.1298 59.8402 31.4971 48.6252 31.4971ZM48.7425 49.9563C39.0124 49.9563 31.1245 46.0567 31.1245 41.2478C31.1245 36.4389 39.0222 32.3008 48.7519 32.3255C59.6562 32.3534 66.3604 36.4389 66.3604 41.2478C66.3604 46.0567 58.4726 49.9563 48.7425 49.9563Z" fill="#FB97BC"/>
<path fill-rule="evenodd" clip-rule="evenodd" d="M48.6252 30.9014C37.4091 30.9014 28.3184 35.5345 28.3184 41.2474C28.3184 46.9606 37.4091 51.5933 48.6252 51.5933C59.8402 51.5933 68.9338 46.9606 68.9338 41.2474C68.9338 35.5345 59.8402 30.9014 48.6252 30.9014ZM48.7425 49.3606C39.0124 49.3606 31.1245 45.4614 31.1245 40.6513C31.1245 35.8416 39.0124 31.9444 48.7425 31.9444C58.4726 31.9444 66.3604 35.8416 66.3604 40.6513C66.3604 45.4614 58.4726 49.3606 48.7425 49.3606Z" fill="#FB97BC"/>
<path fill-rule="evenodd" clip-rule="evenodd" d="M61.2351 38.4478C50.0193 38.4478 40.9277 43.2122 40.9277 49.092C40.9277 54.9689 50.0193 59.9613 61.2351 59.9613C72.45 59.9613 81.5428 54.9689 81.5428 49.092C81.5428 43.2122 72.45 38.4478 61.2351 38.4478ZM61.3523 57.438C51.6218 57.438 43.7344 53.4256 43.7344 48.4793C43.7344 43.5318 51.6312 39.2746 61.3609 39.3008C72.2661 39.3283 78.9706 43.5318 78.9706 48.4793C78.9706 53.4256 71.0824 57.438 61.3523 57.438Z" fill="#FB97BC"/>
<path fill-rule="evenodd" clip-rule="evenodd" d="M61.2351 37.835C50.0193 37.835 40.9277 42.6002 40.9277 48.48C40.9277 54.3577 50.0193 59.1226 61.2351 59.1226C72.45 59.1226 81.5428 54.3577 81.5428 48.48C81.5428 42.6002 72.45 37.835 61.2351 37.835ZM61.3523 56.8248C51.6218 56.8248 43.7344 52.8136 43.7344 47.8661C43.7344 42.9195 51.6218 38.9075 61.3523 38.9075C71.0824 38.9075 78.9706 42.9195 78.9706 47.8661C78.9706 52.8136 71.0824 56.8248 61.3523 56.8248Z" fill="#FB97BC"/>
<path fill-rule="evenodd" clip-rule="evenodd" d="M37.2953 42.4102C25.2829 42.4102 15.5435 47.5136 15.5435 53.8105C15.5435 60.1057 25.2829 65.5599 37.2953 65.5599C49.3096 65.5599 59.048 60.1057 59.048 53.8105C59.048 47.5136 49.3096 42.4102 37.2953 42.4102ZM37.4212 62.7506C26.9988 62.7506 18.5499 58.4549 18.5499 53.1542C18.5499 47.8543 27.0093 43.2952 37.4315 43.3218C49.1122 43.3529 56.2923 47.8543 56.2923 53.1542C56.2923 58.4549 47.8433 62.7506 37.4212 62.7506Z" fill="#FB97BC"/>
<path fill-rule="evenodd" clip-rule="evenodd" d="M37.2953 41.7529C25.2829 41.7529 15.5435 46.8584 15.5435 53.154C15.5435 59.4496 25.2829 64.5551 37.2953 64.5551C49.3096 64.5551 59.048 59.4496 59.048 53.154C59.048 46.8584 49.3096 41.7529 37.2953 41.7529ZM37.4212 62.0941C26.9988 62.0941 18.5499 57.7985 18.5499 52.4978C18.5499 47.1975 26.9988 42.9018 37.4212 42.9018C47.8433 42.9018 56.2923 47.1975 56.2923 52.4978C56.2923 57.7985 47.8433 62.0941 37.4212 62.0941Z" fill="#FB97BC"/>
<path fill-rule="evenodd" clip-rule="evenodd" d="M19.7374 55.7266L18.3311 58.6613C21.5295 61.711 27.3118 63.9117 34.1329 64.4513L35.2834 62.0514C28.0618 61.6156 22.0908 59.1062 19.7374 55.7266Z" fill="#FB97BC"/>
<path fill-rule="evenodd" clip-rule="evenodd" d="M48.989 43.5244L48.0088 44.5382C52.3781 46.0414 55.4428 48.4507 56.1584 51.2362H58.7691C57.7257 47.9971 54.0762 45.2223 48.989 43.5244Z" fill="#FB97BC"/>
<path fill-rule="evenodd" clip-rule="evenodd" d="M71.2994 39.2158L70.5029 40.1928C73.3783 41.0808 75.7141 42.3751 77.2019 43.9193L78.2466 42.6371C76.4836 41.2285 74.0994 40.0528 71.2994 39.2158Z" fill="#FB97BC"/>
<path fill-rule="evenodd" clip-rule="evenodd" d="M57.7309 32.001L57.1479 33.0006C59.6775 33.6778 61.8341 34.6518 63.4256 35.8285L64.1557 34.5757C62.3865 33.5113 60.2023 32.6315 57.7309 32.001Z" fill="#FB97BC"/>
</svg>
