<svg width="97" height="97" viewBox="0 0 97 97" fill="none" xmlns="http://www.w3.org/2000/svg">
<rect x="0.0688477" y="0.0390625" width="96" height="96" rx="24" fill="white"/>
<path d="M51.4785 40.5721C50.0682 40.5722 48.6896 40.9955 47.5172 41.7884C46.3445 42.5814 45.4306 43.7083 44.891 45.027C44.3515 46.3456 44.2103 47.7963 44.4855 49.1962C44.7607 50.5959 45.4399 51.8816 46.4371 52.8907C47.4344 53.8999 48.7049 54.5871 50.088 54.8655C51.4713 55.1438 52.9049 55.0009 54.2078 54.4547C55.5107 53.9085 56.6243 52.9836 57.4077 51.7968C58.1911 50.6101 58.6093 49.215 58.6093 47.7878C58.6092 45.874 57.8578 44.0387 56.5205 42.6855C55.1832 41.3322 53.3696 40.572 51.4785 40.5721ZM26.0875 47.7892C26.0872 40.9742 28.7621 34.4383 33.5236 29.6191C38.2853 24.7999 44.7434 22.0924 51.4777 22.0921L51.4773 14.7881C33.4773 14.7889 18.8693 29.5736 18.8701 47.7896C18.8709 66.0056 33.4803 80.7889 51.4803 80.7881L51.48 73.4841C44.7457 73.4844 38.2873 70.7775 33.5253 65.9588C28.7633 61.1399 26.0878 54.6043 26.0875 47.7892ZM51.4792 56.9401C49.6905 56.9402 47.9422 56.4035 46.4548 55.3979C44.9676 54.3924 43.8084 52.963 43.1238 51.2909C42.4394 49.6185 42.2602 47.7783 42.609 46.003C42.958 44.2276 43.8191 42.597 45.0837 41.3169C46.3486 40.0369 47.9598 39.1653 49.7141 38.812C51.4683 38.4589 53.2868 38.6401 54.9393 39.3325C56.5917 40.0252 58.0043 41.1982 58.9979 42.7031C59.9917 44.2082 60.5222 45.9775 60.5223 47.7877L67.7397 47.7874C67.7395 44.5326 66.7857 41.3511 64.9988 38.645C63.2119 35.9389 60.6723 33.8298 57.7009 32.5844C54.7296 31.3391 51.46 31.0133 48.3058 31.6484C45.1515 32.2835 42.2542 33.8509 39.9802 36.1525C37.7061 38.454 36.1575 41.3863 35.5303 44.5784C34.903 47.7705 35.2251 51.0793 36.456 54.0862C37.6869 57.0931 39.7712 59.663 42.4453 61.4711C45.1195 63.2792 48.2634 64.2442 51.4796 64.2441L51.4792 56.9401ZM51.4777 22.0921L51.478 29.3961C56.298 29.3959 60.9207 31.3334 64.3292 34.7824C67.7375 38.2315 69.6525 42.9094 69.6527 47.7873C69.653 52.6651 67.7384 57.3433 64.3304 60.7927C60.9222 64.2419 56.2996 66.1799 51.4796 66.1801L51.48 73.4841C58.2142 73.4838 64.6724 70.7763 69.4341 65.9572C74.1956 61.1379 76.8704 54.602 76.8701 47.787C76.8698 40.9719 74.1944 34.4362 69.4324 29.6175C64.6703 24.7988 58.2119 22.0918 51.4777 22.0921Z" fill="#FB97BC"/>
</svg>
