<svg width="97" height="97" viewBox="0 0 97 97" fill="none" xmlns="http://www.w3.org/2000/svg">
<rect x="0.0688477" y="0.0390625" width="96" height="96" rx="24" fill="white"/>
<path d="M60.772 15.0391V18.6071H68.574V32.9266H72.9349V18.6071H80.7211V15.0391H60.772Z" fill="#FB97BC"/>
<path d="M32.7188 15.0391L27.0099 26.869L21.317 15.0391H15.085V32.9266H19.4617V20.1294L25.0278 30.9444H29.008L34.574 20.1294V32.9266H38.935V15.0391H32.7188Z" fill="#FB97BC"/>
<path d="M76.3589 74.6798C76.2479 75.3934 75.9625 75.9801 75.5026 76.4242C75.0744 76.8365 74.4877 77.1378 73.7582 77.3122C73.0446 77.4708 71.9823 77.566 70.8722 77.566C69.7145 77.566 68.6996 77.4232 67.8274 77.1219C66.987 76.8365 66.3209 76.329 65.861 75.6313C65.3853 74.9335 65.1474 73.9188 65.1474 72.6025V70.7789C65.1474 69.4785 65.3853 68.4636 65.861 67.75C66.3368 67.0522 66.987 66.5449 67.8274 66.2595C68.6838 65.9582 69.7145 65.8155 70.8722 65.8155C71.9823 65.8155 73.0446 65.9106 73.7582 66.0692C74.4877 66.2436 75.0744 66.5289 75.5026 66.9571C75.9625 67.4011 76.2479 67.9878 76.3589 68.7015H80.7197C80.5928 67.2267 80.1014 65.974 79.2292 64.9591C78.4363 64.0394 77.3263 63.3733 75.9466 62.961C74.6145 62.5646 72.8543 62.3584 70.8722 62.3584C68.7789 62.3584 66.9711 62.6597 65.4804 63.2465C63.9741 63.8491 62.8006 64.8481 61.9918 66.2278C61.2148 67.5438 60.8183 69.3199 60.7866 71.4766V71.6828L61.0245 71.6986L60.7866 71.7145V71.7304V71.9206C60.8183 74.0773 61.2148 75.8533 61.9918 77.1695C62.8006 78.5492 63.9741 79.5482 65.4804 80.1508C66.9711 80.7376 68.7789 81.0389 70.8722 81.0389C72.8543 81.0389 74.6145 80.8327 75.9466 80.4363C77.3263 80.024 78.4205 79.3579 79.2292 78.4382C80.1014 77.4391 80.6087 76.1704 80.7197 74.6956H76.3589V74.6798Z" fill="#FB97BC"/>
</svg>
