<svg width="97" height="97" viewBox="0 0 97 97" fill="none" xmlns="http://www.w3.org/2000/svg">
<rect x="0.0688477" y="0.0390625" width="96" height="96" rx="24" fill="white"/>
<path d="M74.201 27.9492C75.7626 29.9634 77.0638 32.1726 78.1699 34.5116L48.1094 56.6678L35.4873 48.7409V39.2547L48.0451 47.1166L74.201 27.9492Z" fill="#FB97BC"/>
<path d="M22.7091 48.0778C22.7091 47.6239 22.7091 47.2349 22.7744 46.781L15.1342 46.3921C15.1342 46.9108 15.0688 47.4943 15.0688 48.013C15.0688 57.0904 18.791 65.3243 24.7986 71.2903L30.2185 65.9087C25.5822 61.37 22.7091 55.0803 22.7091 48.0778Z" fill="#FB97BC"/>
<path d="M48.0297 22.6793C48.4836 22.6793 48.8726 22.6793 49.3265 22.7446L49.7156 15.1044C49.1969 15.1044 48.6133 15.0391 48.0946 15.0391C39.0173 15.0391 30.7833 18.7612 24.8174 24.7689L30.1989 30.1888C34.7376 25.5524 41.0921 22.6793 48.0297 22.6793Z" fill="#FB97BC"/>
<path d="M47.9853 73.3987C47.529 73.3987 47.1379 73.3987 46.6816 73.3334L46.2905 80.9736C46.812 80.9736 47.3986 81.0389 47.9201 81.0389C57.0454 81.0389 65.323 77.3167 71.3205 71.3091L65.9105 65.8892C61.3478 70.5908 55.0248 73.3987 47.9853 73.3987Z" fill="#FB97BC"/>
<path d="M62.3578 27.1588L68.8173 22.4021C63.1408 17.841 55.8985 15.0391 48.0029 15.0391V22.6628C53.3532 22.7279 58.312 24.357 62.3578 27.1588Z" fill="#FB97BC"/>
<path d="M81.0685 48.0808C81.0685 46.0696 80.8741 44.1231 80.5501 42.1768L73.4873 47.4321V48.0809C73.4873 55.5421 70.2474 62.2245 65.1284 66.8315L70.2474 72.4762C76.8567 66.5072 81.0685 57.7491 81.0685 48.0808Z" fill="#FB97BC"/>
<path d="M48.0032 73.458C40.5494 73.458 33.8736 70.2181 29.2712 65.0991L23.6323 70.2181C29.6602 76.8922 38.3449 81.0392 48.0036 81.0392L48.0032 73.458Z" fill="#FB97BC"/>
<path d="M31.009 29.2713L25.89 23.6016C19.2159 29.6623 15.0688 38.3944 15.0688 48.1046H22.6501C22.6501 40.6753 25.89 33.8988 31.009 29.2713Z" fill="#FB97BC"/>
</svg>
