<svg width="97" height="97" viewBox="0 0 97 97" fill="none" xmlns="http://www.w3.org/2000/svg">
<rect x="0.0688477" y="0.0390625" width="96" height="96" rx="24" fill="white"/>
<path d="M14.6494 47.5526C14.6467 56.2974 18.1209 64.6872 24.3118 70.8867C27.3694 73.9484 31.0039 76.3783 35.0068 78.0368C39.0096 79.6954 43.3019 80.5499 47.6372 80.5512L48.961 80.5512L48.9606 68.0152L47.6368 68.0152C44.9484 68.0144 42.2866 67.4846 39.8043 66.4562C37.322 65.4278 35.0681 63.9211 33.172 62.0226C29.3328 58.178 27.1784 52.9751 27.1802 47.5523C27.18 42.1249 29.3352 36.9197 33.1711 33.0816C35.067 31.1827 37.3208 29.6757 39.8031 28.647C42.2853 27.6184 44.9471 27.0883 47.6356 27.0873L48.9594 27.0872L48.959 14.5512L47.6352 14.5512C43.2999 14.5528 39.0076 15.4075 35.0049 17.0663C31.0021 18.7251 27.3677 21.1552 24.3104 24.2172C18.1196 30.4173 14.646 38.8077 14.6494 47.5526Z" fill="#FB97BC"/>
<path d="M54.2361 15.223L54.2366 32.3667L47.6351 32.3669C45.6403 32.3676 43.6652 32.7609 41.8233 33.5242C39.9815 34.2875 38.3091 35.4057 36.9023 36.8146C34.0542 39.6677 32.4563 43.5283 32.4581 47.552C32.4582 51.5796 34.0577 55.4422 36.9037 58.2899C38.3106 59.6987 39.9831 60.8168 41.825 61.58C43.6669 62.3431 45.642 62.7363 47.6369 62.7369L54.2383 62.7367L54.2389 79.8217C61.7007 78.3001 68.4033 74.2512 73.2075 68.3635C78.0232 62.4621 80.6513 55.0884 80.6494 47.4831C80.6509 39.8778 78.0224 32.5041 73.2062 26.6031C68.4014 20.7157 61.6982 16.6676 54.2361 15.1468" fill="#FB97BC"/>
</svg>
