<svg width="97" height="97" viewBox="0 0 97 97" fill="none" xmlns="http://www.w3.org/2000/svg">
<rect x="0.0688477" y="0.0390625" width="96" height="96" rx="24" fill="white"/>
<path d="M15.1304 17.8027H79.9548V50.9926C79.9548 59.5035 75.4448 67.35 68.1119 71.6215L47.5426 83.8027L26.995 71.6215C19.6622 67.3819 15.1618 59.5035 15.1618 50.9926V17.8027H15.1304Z" fill="#FB97BC"/>
<path fill-rule="evenodd" clip-rule="evenodd" d="M32.5811 35.2695V45.5836C33.9973 44.0017 36.5464 42.9259 39.4417 42.9259H42.6204V54.9174C42.6204 58.1127 41.7707 60.8973 40.4804 62.4476H54.5964C53.3062 60.8973 52.527 58.1127 52.527 54.9174V42.9259H55.6187C58.5455 42.9259 61.1153 44.0017 62.5 45.5836V35.2695H32.5811Z" fill="white"/>
</svg>
